<svg width="51" height="46" viewBox="0 0 51 46" fill="none" xmlns="http://www.w3.org/2000/svg">
<path d="M40.9593 10.2063C38.0906 9.05627 35.0625 8.19377 31.875 7.61877H31.7156C31.3968 8.19377 30.9187 9.05627 30.6 9.77502C27.0937 9.34377 23.7468 9.34377 20.4 9.77502C20.0812 9.05627 19.6031 8.33752 19.2843 7.61877H19.125C15.9375 8.05002 12.9093 8.91252 10.0406 10.2063C4.3031 17.9688 2.70934 25.5875 3.50622 33.0625V33.2063C7.33122 35.7938 10.9968 37.2313 14.6625 38.2375H14.8218C15.6187 37.2313 16.4156 36.0813 17.0531 34.9313V34.7875C15.7781 34.3563 14.6625 33.925 13.5468 33.35C13.3875 33.35 13.3875 33.2063 13.5468 33.2063C13.7062 33.0625 14.025 32.9188 14.1843 32.775H14.3437C21.675 35.7938 29.4843 35.7938 36.8156 32.775H36.975C37.1343 32.9188 37.4531 33.0625 37.6125 33.2063C37.7718 33.2063 37.6125 33.35 37.6125 33.35C36.4968 33.925 35.3812 34.5 34.1062 34.7875C34.1062 34.7875 33.9468 34.9313 34.1062 34.9313C34.7437 36.0813 35.5406 37.2313 36.3375 38.2375H36.4968C40.1625 37.2313 43.8281 35.65 47.6531 33.2063V33.0625C48.6093 24.4375 46.0593 16.9625 40.9593 10.2063ZM18.1687 28.6063C15.9375 28.6063 14.1843 26.7375 14.1843 24.5813C14.1843 22.425 15.9375 20.5563 18.1687 20.5563C20.4 20.5563 22.1531 22.425 22.1531 24.5813C22.1531 26.7375 20.4 28.6063 18.1687 28.6063ZM32.9906 28.6063C30.7593 28.6063 29.0062 26.7375 29.0062 24.5813C29.0062 22.425 30.7593 20.5563 32.9906 20.5563C35.2218 20.5563 36.975 22.425 36.975 24.5813C36.975 26.7375 35.2218 28.6063 32.9906 28.6063Z" fill="#EB5412"/>
</svg>
