<svg width="27" height="28" viewBox="0 0 27 28" fill="none" xmlns="http://www.w3.org/2000/svg">
<path d="M0 24C0 21.5752 1.10625 19.2496 3.07538 17.535C5.04451 15.8204 7.71523 14.8571 10.5 14.8571C13.2848 14.8571 15.9555 15.8204 17.9246 17.535C19.8938 19.2496 21 21.5752 21 24H18.375C18.375 22.1814 17.5453 20.4372 16.0685 19.1513C14.5916 17.8653 12.5886 17.1429 10.5 17.1429C8.41142 17.1429 6.40838 17.8653 4.93153 19.1513C3.45469 20.4372 2.625 22.1814 2.625 24H0ZM10.5 13.7143C6.14906 13.7143 2.625 10.6457 2.625 6.85714C2.625 3.06857 6.14906 0 10.5 0C14.8509 0 18.375 3.06857 18.375 6.85714C18.375 10.6457 14.8509 13.7143 10.5 13.7143ZM10.5 11.4286C13.4006 11.4286 15.75 9.38286 15.75 6.85714C15.75 4.33143 13.4006 2.28571 10.5 2.28571C7.59937 2.28571 5.25 4.33143 5.25 6.85714C5.25 9.38286 7.59937 11.4286 10.5 11.4286Z" fill="#412C15"/>
<circle cx="20.5" cy="20.5" r="6" fill="#F4F4F4" stroke="#EB5412"/>
<line x1="20.5" y1="17" x2="20.5" y2="24" stroke="#412C15"/>
<line x1="24" y1="20.5" x2="17" y2="20.5" stroke="#412C15"/>
</svg>
