<svg width="24" height="26" viewBox="0 0 24 26" fill="none" xmlns="http://www.w3.org/2000/svg">
<mask id="mask0_16_73" style="mask-type:alpha" maskUnits="userSpaceOnUse" x="0" y="0" width="24" height="26">
<rect width="24" height="26" fill="#D9D9D9"/>
</mask>
<g mask="url(#mask0_16_73)">
<path d="M12 25.9916L10.26 24.2916C8.24 22.3083 6.57 20.5974 5.25 19.1589C3.93 17.7205 2.88 16.4291 2.1 15.2849C1.32 14.1407 0.775 13.0891 0.465 12.1301C0.155 11.1712 0 10.1904 0 9.18785C0 7.13915 0.63 5.42827 1.89 4.0552C3.15 2.68214 4.72 1.99561 6.6 1.99561C7.64 1.99561 8.63 2.23535 9.57 2.71483C10.51 3.19431 11.32 3.86995 12 4.74174C12.68 3.86995 13.49 3.19431 14.43 2.71483C15.37 2.23535 16.36 1.99561 17.4 1.99561C19.28 1.99561 20.85 2.68214 22.11 4.0552C23.37 5.42827 24 7.13915 24 9.18785C24 10.1904 23.845 11.1712 23.535 12.1301C23.225 13.0891 22.68 14.1407 21.9 15.2849C21.12 16.4291 20.07 17.7205 18.75 19.1589C17.43 20.5974 15.76 22.3083 13.74 24.2916L12 25.9916ZM12 22.4608C13.92 20.5865 15.5 18.9791 16.74 17.6387C17.98 16.2984 18.96 15.1324 19.68 14.1407C20.4 13.149 20.9 12.2664 21.18 11.4926C21.46 10.7189 21.6 9.95067 21.6 9.18785C21.6 7.88017 21.2 6.79044 20.4 5.91865C19.6 5.04686 18.6 4.61097 17.4 4.61097C16.46 4.61097 15.59 4.89975 14.79 5.47731C13.99 6.05487 13.44 6.79044 13.14 7.68402H10.86C10.56 6.79044 10.01 6.05487 9.21 5.47731C8.41 4.89975 7.54 4.61097 6.6 4.61097C5.4 4.61097 4.4 5.04686 3.6 5.91865C2.8 6.79044 2.4 7.88017 2.4 9.18785C2.4 9.95067 2.54 10.7189 2.82 11.4926C3.1 12.2664 3.6 13.149 4.32 14.1407C5.04 15.1324 6.02 16.2984 7.26 17.6387C8.5 18.9791 10.08 20.5865 12 22.4608Z" fill="#EB5412"/>
</g>
</svg>
