<svg width="45" height="41" viewBox="0 0 45 41" fill="none" xmlns="http://www.w3.org/2000/svg">
<g clip-path="url(#clip0_26_267)">
<path fill-rule="evenodd" clip-rule="evenodd" d="M44.5571 8.07031C44.8956 6.90266 44.5571 6.05383 43.0599 6.05383H38.0813C36.8255 6.05383 36.2456 6.79707 35.9071 7.59207C35.9071 7.59207 33.3461 14.3827 29.7697 18.7852C28.6099 20.0585 28.0785 20.4829 27.4501 20.4829C27.1117 20.4829 26.6763 20.0585 26.6763 18.8918V8.01545C26.6763 6.63662 26.2903 6 25.2265 6H17.397C16.6231 6 16.1402 6.63662 16.1402 7.27324C16.1402 8.59928 17.9284 8.91811 18.1214 12.6312V20.6992C18.1214 22.4497 17.8362 22.7695 17.203 22.7695C15.5118 22.7695 11.404 15.9261 8.93995 8.12828C8.46082 6.58383 7.97408 6 6.71732 6H1.69121C0.241466 6 0 6.74221 0 7.53824C0 8.9709 1.69121 16.1849 7.87712 25.7332C11.9849 32.2547 17.8324 35.7597 23.0999 35.7597C26.2903 35.7597 26.6763 34.9637 26.6763 33.6376V28.7041C26.6763 27.113 26.9662 26.848 27.9815 26.848C28.7059 26.848 30.0112 27.2714 32.9592 30.4017C36.3416 34.1148 36.9215 35.8125 38.8066 35.8125H43.7843C45.234 35.8125 45.9109 35.0165 45.5239 33.4782C45.0895 31.94 43.4458 29.7123 41.3192 27.0603C40.1594 25.5758 38.4197 23.931 37.8883 23.1349C37.1639 22.0739 37.3569 21.6495 37.8883 20.6951C37.8398 20.6951 43.9297 11.2524 44.5571 8.06617" fill="#EB5412"/>
</g>
<defs>
<clipPath id="clip0_26_267">
<rect width="45" height="41" fill="white"/>
</clipPath>
</defs>
</svg>
