<svg width="24" height="24" viewBox="0 0 24 24" fill="none" xmlns="http://www.w3.org/2000/svg">
<mask id="mask0_16_76" style="mask-type:alpha" maskUnits="userSpaceOnUse" x="0" y="0" width="24" height="24">
<rect width="24" height="24" fill="#D9D9D9"/>
</mask>
<g mask="url(#mask0_16_76)">
<path d="M7.20666 23.9916C6.54605 23.9916 5.98053 23.7566 5.51009 23.2867C5.03966 22.8168 4.80444 22.2519 4.80444 21.592C4.80444 20.9321 5.03966 20.3672 5.51009 19.8972C5.98053 19.4273 6.54605 19.1924 7.20666 19.1924C7.86727 19.1924 8.43279 19.4273 8.90323 19.8972C9.37366 20.3672 9.60888 20.9321 9.60888 21.592C9.60888 22.2519 9.37366 22.8168 8.90323 23.2867C8.43279 23.7566 7.86727 23.9916 7.20666 23.9916ZM19.2178 23.9916C18.5571 23.9916 17.9916 23.7566 17.5212 23.2867C17.0508 22.8168 16.8155 22.2519 16.8155 21.592C16.8155 20.9321 17.0508 20.3672 17.5212 19.8972C17.9916 19.4273 18.5571 19.1924 19.2178 19.1924C19.8784 19.1924 20.4439 19.4273 20.9143 19.8972C21.3848 20.3672 21.62 20.9321 21.62 21.592C21.62 22.2519 21.3848 22.8168 20.9143 23.2867C20.4439 23.7566 19.8784 23.9916 19.2178 23.9916ZM6.18572 4.7948L9.06838 10.7938H17.4761L20.7792 4.7948H6.18572ZM5.04466 2.3952H22.761C23.2215 2.3952 23.5718 2.60017 23.812 3.0101C24.0522 3.42003 24.0622 3.83496 23.842 4.25489L19.5781 11.9336C19.3579 12.3335 19.0626 12.6435 18.6923 12.8634C18.3219 13.0834 17.9166 13.1934 17.4761 13.1934H8.52788L7.20666 15.593H21.62V17.9926H7.20666C6.30583 17.9926 5.6252 17.5976 5.16477 16.8078C4.70435 16.0179 4.68433 15.233 5.10472 14.4532L6.72621 11.5137L2.40222 2.3952H0V-0.00439453H3.90361L5.04466 2.3952Z" fill="#412C15"/>
</g>
</svg>
