<svg width="45" height="41" viewBox="0 0 45 41" fill="none" xmlns="http://www.w3.org/2000/svg">
<path d="M44.3742 0.448578C44.1252 0.22916 43.8222 0.0832335 43.498 0.0265183C43.1737 -0.0301969 42.8404 0.00444956 42.534 0.126725L1.82137 16.3854C1.24438 16.6144 0.755888 17.0284 0.429441 17.5652C0.102994 18.102 -0.0437409 18.7324 0.0113269 19.3617C0.0663948 19.9909 0.320285 20.5849 0.734774 21.0541C1.14926 21.5234 1.70192 21.8425 2.30953 21.9635L12.8583 24.0771V36.08C12.8563 36.7337 13.0467 37.3731 13.4049 37.9152C13.763 38.4572 14.2725 38.877 14.8673 39.1201C15.4611 39.3676 16.1141 39.427 16.7415 39.2906C17.3688 39.1542 17.9414 38.8284 18.3849 38.3555L23.4714 32.9721L31.5412 40.18C32.1235 40.707 32.8744 40.9986 33.6526 41C33.9937 40.9997 34.3326 40.9451 34.6571 40.8381C35.1873 40.6664 35.6642 40.3559 36.0403 39.9376C36.4164 39.5193 36.6785 39.0077 36.8006 38.4539L44.9548 2.25464C45.0277 1.92818 45.0122 1.58761 44.9099 1.26945C44.8077 0.951284 44.6225 0.667522 44.3742 0.448578ZM32.0917 7.82865L14.0938 20.9816L4.12961 18.9869L32.0917 7.82865ZM16.0726 36.08V26.3465L21.0527 30.8032L16.0726 36.08ZM33.6566 37.72L17.0469 22.8573L40.953 5.37272L33.6566 37.72Z" fill="#EB5412"/>
</svg>
